<svg xmlns="http://www.w3.org/2000/svg" viewBox="0 0 1024 1024" width="1024" height="1024">
  <g transform="rotate(-9 512 512)">
    
    <path d="M 212 1024 Q 222 635 392 585 L 452 535 L 572 535 L 632 585 Q 802 635 812 1024 Z" fill="#1e3a8a"/>
    <path d="M 452 535 L 512 635 L 572 535 L 552 529 L 512 585 L 472 529 Z" fill="#f8fafc"/>
    <path d="M 512 585 L 486 621 L 512 745 L 538 621 Z" fill="#b45309"/>
       <rect x="492" y="575" width="40" height="26" rx="6" fill="#b45309"/>
    <path d="M 262 765 Q 512 685 762 765 L 762 835 Q 512 765 262 835 Z" fill="#172c68"/>
       <circle cx="322" cy="793" r="34" fill="#e8b98a"/>
       <circle cx="702" cy="793" r="34" fill="#e8b98a"/>
    <rect x="457" y="500" width="110" height="90" fill="#e8b98a"/>
    <ellipse cx="307" cy="390" rx="28" ry="40" fill="#e8b98a"/>
    <ellipse cx="717" cy="390" rx="28" ry="40" fill="#e8b98a"/>
    <ellipse cx="512" cy="380" rx="210" ry="225" fill="#e8b98a"/>
    
        <path d="M 297 340 Q 302 150 512 145 Q 722 150 727 340 Q 672 230 512 220 Q 352 230 297 340 Z" fill="#9ca3af"/>
        <path d="M 472 148 L 492 120 L 512 146 L 532 122 L 552 148 Z" fill="#9ca3af"/>
    <rect x="382" y="296" width="90" height="18" rx="9" fill="#3f3f46" transform="rotate(-20 427 305)"/><rect x="552" y="296" width="90" height="18" rx="9" fill="#3f3f46" transform="rotate(20 597 305)"/>
        <line x1="407" y1="340" x2="447" y2="380" stroke="#27272a" stroke-width="11" stroke-linecap="round"/>
        <line x1="447" y1="340" x2="407" y2="380" stroke="#27272a" stroke-width="11" stroke-linecap="round"/>
        <line x1="577" y1="340" x2="617" y2="380" stroke="#27272a" stroke-width="11" stroke-linecap="round"/>
        <line x1="617" y1="340" x2="577" y2="380" stroke="#27272a" stroke-width="11" stroke-linecap="round"/>
    <ellipse cx="512" cy="425" rx="16" ry="22" fill="#ae8b68"/>
    <path d="M 468 491 Q 490 475 512 491 Q 534 507 556 491" stroke="#7f1d1d" stroke-width="11" fill="none" stroke-linecap="round"/>
    <path d="M 702 320 q 22 34 0 52 q -22 -18 0 -52 Z" fill="#7dd3fc"/><g stroke="#a1a1aa" stroke-width="8" fill="none" stroke-linecap="round">
      <path d="M 502 115 a 26 26 0 1 1 26 -26 a 18 18 0 1 0 -40 12"/>
    </g>
  </g>
</svg>