<svg xmlns="http://www.w3.org/2000/svg" viewBox="0 0 1024 1024" width="1024" height="1024">
  <g >
    
    <path d="M 212 1024 Q 222 635 392 585 L 452 535 L 572 535 L 632 585 Q 802 635 812 1024 Z" fill="#1e3a8a"/>
    <path d="M 452 535 L 512 635 L 572 535 L 552 529 L 512 585 L 472 529 Z" fill="#f8fafc"/>
    <path d="M 512 585 L 486 621 L 512 745 L 538 621 Z" fill="#b45309"/>
       <rect x="492" y="575" width="40" height="26" rx="6" fill="#b45309"/>
    <path d="M 262 765 Q 512 685 762 765 L 762 835 Q 512 765 262 835 Z" fill="#172c68"/>
       <circle cx="322" cy="793" r="34" fill="#e8b98a"/>
       <circle cx="702" cy="793" r="34" fill="#e8b98a"/>
    <rect x="457" y="500" width="110" height="90" fill="#e8b98a"/>
    <ellipse cx="307" cy="390" rx="28" ry="40" fill="#e8b98a"/>
    <ellipse cx="717" cy="390" rx="28" ry="40" fill="#e8b98a"/>
    <ellipse cx="512" cy="380" rx="210" ry="225" fill="#e8b98a"/>
    
        <path d="M 297 340 Q 302 150 512 145 Q 722 150 727 340 Q 672 230 512 220 Q 352 230 297 340 Z" fill="#9ca3af"/>
        <path d="M 472 148 L 492 120 L 512 146 L 532 122 L 552 148 Z" fill="#9ca3af"/>
    <rect x="382" y="296" width="90" height="18" rx="9" fill="#3f3f46" transform="rotate(34 427 305)"/><rect x="552" y="296" width="90" height="18" rx="9" fill="#3f3f46" transform="rotate(-34 597 305)"/>
        <circle cx="427" cy="360" r="24" fill="#ffffff" stroke="#dc2626" stroke-width="7"/>
        <circle cx="597" cy="360" r="24" fill="#ffffff" stroke="#dc2626" stroke-width="7"/>
        <circle cx="427" cy="360" r="6" fill="#dc2626"/><circle cx="597" cy="360" r="6" fill="#dc2626"/>
    <ellipse cx="512" cy="425" rx="16" ry="22" fill="#ae8b68"/>
    <path d="M 442 461 Q 512 433 582 461 Q 512 451 442 461 Z" fill="#9ca3af"/><path d="M 450 479 L 478 491 L 504 477 L 532 491 L 560 477 L 574 487 Q 512 547 450 479 Z" fill="#7f1d1d"/>
           <path d="M 472 511 Q 512 529 552 509" stroke="#fecaca" stroke-width="8" fill="none"/>
    <g stroke="#dc2626" stroke-width="10" stroke-linecap="round">
      <path d="M 658 250 q 11 -11 22 0 q 11 11 22 0" fill="none"/>
      <path d="M 658 272 q 11 -11 22 0 q 11 11 22 0" fill="none"/>
    </g><g fill="#e5e7eb" opacity="0.9">
      <path d="M 272 230 q -20 -30 5 -55 q -30 5 -25 -30" stroke="#e5e7eb" stroke-width="14" fill="none" stroke-linecap="round"/>
      <path d="M 752 230 q 20 -30 -5 -55 q 30 5 25 -30" stroke="#e5e7eb" stroke-width="14" fill="none" stroke-linecap="round"/>
    </g>
  </g>
</svg>