<svg xmlns="http://www.w3.org/2000/svg" viewBox="0 0 1024 1024" width="1024" height="1024">
  <g >
    
    <path d="M 212 1024 Q 222 635 392 585 L 452 535 L 572 535 L 632 585 Q 802 635 812 1024 Z" fill="#0f766e"/>
    <path d="M 452 535 L 512 635 L 572 535 L 552 529 L 512 585 L 472 529 Z" fill="#f0fdfa"/>
    
    
    <rect x="457" y="500" width="110" height="90" fill="#f5d0a9"/>
    <ellipse cx="307" cy="390" rx="28" ry="40" fill="#f5d0a9"/>
    <ellipse cx="717" cy="390" rx="28" ry="40" fill="#f5d0a9"/>
    <ellipse cx="512" cy="380" rx="210" ry="225" fill="#f5d0a9"/>
    
        <path d="M 287 510 L 287 320 Q 297 145 512 140 Q 727 145 737 320 L 737 510 L 677 490 Q 697 320 642 235 Q 552 205 452 220 Q 337 260 347 490 Z" fill="#27272a"/>
    <rect x="382" y="296" width="90" height="18" rx="9" fill="#3f3f46" transform="rotate(-4 427 305)"/><rect x="552" y="296" width="90" height="18" rx="9" fill="#3f3f46" transform="rotate(4 597 305)"/><circle cx="427" cy="360" r="16" fill="#27272a"/><circle cx="597" cy="360" r="16" fill="#27272a"/><g stroke="#3f3f46" stroke-width="8" fill="none">
        <rect x="379" y="326" width="96" height="68" rx="14"/>
        <rect x="549" y="326" width="96" height="68" rx="14"/>
        <line x1="475" y1="354" x2="549" y2="354"/>
      </g>
    <ellipse cx="512" cy="425" rx="16" ry="22" fill="#b89c7f"/>
    <path d="M 474 485 Q 512 493 550 485" stroke="#7f1d1d" stroke-width="11" fill="none" stroke-linecap="round"/>
    
  </g>
</svg>