<svg xmlns="http://www.w3.org/2000/svg" viewBox="0 0 1024 1024" width="1024" height="1024">
  <g >

    <path d="M 212 1024 Q 222 635 392 585 L 452 535 L 572 535 L 632 585 Q 802 635 812 1024 Z" fill="#166534"/>
    <path d="M 242 872 Q 512 792 782 872" stroke="#f0fdf4" stroke-width="14" fill="none"/>
    <path d="M 246 916 Q 512 836 778 916" stroke="#f0fdf4" stroke-width="14" fill="none"/>
    <path d="M 452 535 L 512 635 L 572 535 L 552 529 L 512 585 L 472 529 Z" fill="#f0fdf4"/>
    <path d="M 462 542 L 506 690 M 562 542 L 518 690" stroke="#facc15" stroke-width="9" fill="none"/>
    <rect x="524" y="682" width="42" height="18" rx="7" fill="#d4d4d8" stroke="#52525b" stroke-width="6"/>
    <circle cx="512" cy="706" r="26" fill="#d4d4d8" stroke="#52525b" stroke-width="6"/>
    <rect x="457" y="500" width="110" height="90" fill="#e8b98a"/>
    <ellipse cx="307" cy="390" rx="28" ry="40" fill="#e8b98a"/>
    <ellipse cx="717" cy="390" rx="28" ry="40" fill="#e8b98a"/>
    <ellipse cx="512" cy="380" rx="210" ry="225" fill="#e8b98a"/>

        <path d="M 317 360 L 317 143 L 707 143 L 707 360 Q 647 254 512 249 Q 377 254 317 360 Z" fill="#1c1917"/>
    <rect x="374" y="290" width="106" height="26" rx="10" fill="#1c1917" transform="rotate(-14 427 303)"/><rect x="544" y="290" width="106" height="26" rx="10" fill="#1c1917" transform="rotate(14 597 303)"/>
        <path d="M 397 360 Q 427 334 457 360" stroke="#1c1917" stroke-width="11" fill="none" stroke-linecap="round"/>
        <path d="M 567 360 Q 597 334 627 360" stroke="#1c1917" stroke-width="11" fill="none" stroke-linecap="round"/>
    <ellipse cx="512" cy="425" rx="16" ry="22" fill="#ae8b68"/>
    <path d="M 480 490 Q 528 504 558 470" stroke="#7f1d1d" stroke-width="12" fill="none" stroke-linecap="round"/>
    <g fill="#fbbf24">
      <path d="M 712 210 l 8 22 22 8 -22 8 -8 22 -8 -22 -22 -8 22 -8 Z"/>
      <path d="M 292 260 l 5 14 14 5 -14 5 -5 14 -5 -14 -14 -5 14 -5 Z"/>
    </g>
  </g>
</svg>
